<?xml version="1.0" encoding="utf-8" ?><svg xmlns="http://www.w3.org/2000/svg" xmlns:xlink="http://www.w3.org/1999/xlink" width="1024" height="1024" viewBox="0 0 1024 1024"><path fill="white" d="M0 0L1024 0L1024 1024L0 1024L0 0Z"/><path d="M409.012 233.72L409.386 235.136C354.289 291.24 385.005 371.52 464.497 373.219C479.093 373.532 492.095 367.182 505.843 363.482C531.814 356.614 562.138 365.111 581.297 383.481C603.124 404.411 608.953 434.098 613.916 462.595C618.452 488.633 625.164 506.702 646.02 524.409C673.083 547.386 703.619 530.685 726.872 511.145C710.302 552.68 689.771 583.224 654.524 611.45C653.771 587.505 646.352 565.552 628.821 548.439C617.564 537.451 600.991 529.974 585.145 530.56C570.307 531.108 559.127 536.688 546.559 543.839C545.445 539.887 544.426 535.91 543.503 531.909L544.21 531.265C547.658 528.168 551.085 526.107 554.942 522.434C566.677 511.338 573.806 496.233 574.912 480.121C576.162 463.053 570.485 446.202 559.161 433.371C547.568 420.407 531.248 412.65 513.875 411.848C478.602 410.091 448.401 438.586 447.509 473.765C446.858 499.431 459.361 517.592 479.795 531.666C475.192 551.877 469.542 572.014 464.447 592.114C463.546 595.67 462.623 599.338 461.554 602.842C438.384 587.085 416.597 570.789 411.707 541.239C409.84 529.959 409.549 514.479 413.408 503.835C425.539 470.959 435.943 437.98 423.168 403.263C411.543 371.675 383.546 352.024 349.509 359.091C328.444 363.464 307.818 375.577 295.733 393.538C293.434 397.008 291.168 400.5 288.936 404.014L288.263 403.741C291.113 387.966 293.204 379.958 298.069 364.522C314.741 311.622 359.247 258.817 409.012 233.72Z"/><path d="M360.519 360.707C375.231 359.871 389.678 364.878 400.716 374.64C434.942 404.8 429.071 456.672 413.348 494.5C399.866 526.937 409 566.901 437.116 588.473C444.684 594.28 453.263 600.394 460.465 606.633C458.464 615.734 455.025 629.864 452.153 638.651C445.223 631.723 434.288 626.341 426.021 621.073C402.356 605.992 387.471 587.132 377.805 561.121C358.964 507.478 397.526 483.128 397.496 433.454C397.483 412.22 380.74 392.169 358.207 394.541C334.553 397.031 317.757 413.755 308.714 434.904C301.903 450.833 300.634 459.53 288.812 473.118C284.887 456.394 284.431 431.649 287.537 414.589C288.589 408.811 299.101 393.404 303.05 388.737C316.862 372.414 339.375 362.395 360.519 360.707Z"/><path d="M359.815 397.206C376.064 396.863 388.002 406.128 392.56 421.683C400.739 449.592 383.747 476.151 375.026 501.637C371.461 512.056 369.538 524.464 369.902 535.503C371.752 569.478 391.645 600.934 419.21 620.192C429.618 627.463 442.653 633.473 451.634 641.777C450.489 645.584 449.779 648.098 449.051 651.983C411.986 643.281 376.467 621.815 355.882 589.298C338.641 560.311 335.231 528.886 346.949 496.685C353.393 479.013 366.495 461.451 363.845 441.802C362.868 434.563 357.838 427.64 349.779 429.681C337.444 432.806 333.94 447.785 330.399 458.249C323.211 479.486 312.924 499.605 300.853 518.45C295.892 508.128 291.557 488.582 289.387 477.452C292.631 472.934 299.685 465.537 301.517 460.645C312.045 432.549 324.314 400.126 359.815 397.206Z"/><path fill="#0F310F" d="M278.587 711.293C299.724 709.925 317.98 725.923 319.4 747.056C320.82 768.19 304.868 786.486 283.738 787.958C262.534 789.435 244.161 773.415 242.736 752.207C241.311 731 257.376 712.666 278.587 711.293Z"/><path fill="white" d="M277.091 721.607C312.386 717.996 317.766 771.4 284.928 777.368C281.859 777.515 279.264 777.665 276.191 777.175C255.436 773.867 250.567 747.25 260.569 731.76C264.592 725.53 270.083 723.039 277.091 721.607Z"/><path d="M582.315 533.687C583.539 533.578 584.767 533.514 585.996 533.494C610.699 533.288 630.442 549.383 641.511 570.44C649.138 584.949 651.526 597.598 651.521 613.713C640.486 621.879 632.881 627.162 620.521 633.256C620.94 630.33 621.012 627.275 621.147 624.315C620.609 594.187 601.427 562.539 567.128 571.065C562.813 572.138 559.313 573.824 555.278 575.683C552.276 567.06 550.303 556.355 547.367 547.171C558.72 539.727 568.663 535.273 582.315 533.687Z"/><path d="M602.361 227.005C603.959 227.188 605.185 227.366 606.151 228.592C604.488 233.153 582.6 239.351 577.749 240.586C557.679 245.694 537.543 241.503 517.236 242.396C494.05 243.416 467.352 249.586 450.728 266.99C439.104 279.675 437.15 297.603 451.329 309.116C469.49 323.863 489.758 316.655 510.264 314.052C516.273 313.29 523.82 313.626 530.003 313.333C538.879 312.912 548.049 312.446 556.905 312.979C583.704 315.553 607.779 328.046 627.814 345.392C647.109 361.854 660.105 384.493 664.589 409.456C667.522 426.137 664.414 453.416 677.103 465.796C685.624 474.108 700.118 462.426 705.372 454.534C716.42 438.144 715.676 416.449 712.578 397.742C704.431 348.548 661.831 298.8 610.844 292.283C605.543 291.589 600.192 291.349 594.851 291.568C580.251 292.23 526.383 302.909 518.588 280.227C518.06 278.693 519.31 275.139 520.518 273.834C533.532 259.776 554.298 263.97 571.336 262.588C579.497 261.943 586.252 260.119 594.039 257.897C607.553 254.041 619.803 247.66 632.713 242.514C633.659 242.137 635.965 244.173 636.684 244.757C617.64 253.995 598.347 262.323 577.287 265.918C561.625 268.964 545.897 263.783 531.022 271.052C519.329 276.766 518.661 283.57 531.545 287.321C545.198 291.296 559.264 291.645 573.309 290.183C580.933 289.389 588.595 287.917 596.22 287.64C603.655 287.422 611.091 288.09 618.368 289.63C651.059 296.375 677.795 318.594 696.41 346.502C716.79 377.056 733.75 442.656 696.637 468.365C693.003 470.883 685.257 473.666 680.951 471.98C658.548 463.21 665.385 430.834 661.079 412.069C657.876 397.167 654.619 385.152 646.611 372.896C628.119 344.651 594.375 321.691 560.551 317.132C546.916 315.294 523.357 317.587 508.927 318.133C494.739 318.669 483.714 324.839 467.774 320.869C449.628 316.348 433.632 302.46 438.252 281.857C447.411 250.717 488.171 239.219 516.899 238.647C548.343 238.021 572.645 244.155 602.361 227.005Z"/><path d="M350.113 432.519C373.904 431.627 353.672 474.979 349.193 484.179C327.917 527.877 335.365 576.306 369.842 611.117C365.539 608.674 359.514 603.11 355.6 599.719C331.363 576.593 315.416 553.359 302.365 522.402C307.466 511.509 315.938 499.791 321.514 487.885C327.921 475.558 331.813 462.398 336.347 449.347C338.994 441.727 342.531 435.857 350.113 432.519Z"/><path fill="#0F310F" d="M682.105 727.608C683.717 727.481 685.336 727.447 686.953 727.507C713.363 728.377 720.464 766.475 701.693 782.502C696.423 786.982 689.525 789.068 682.655 788.258C675.193 787.442 670.01 783.851 665.461 778.181L665.411 796.25L665.466 816.454L652.882 816.478C653.146 787.506 652.831 757.854 652.654 728.842L665.495 728.803L665.516 737.839C671.427 731.215 673.503 729.506 682.105 727.608Z"/><path fill="white" d="M678.775 738.569C689.328 737.85 696.861 742.111 699.449 752.754C702.074 763.552 697.782 773.744 687.097 777.439C662.265 781.531 656.781 746.229 678.775 738.569Z"/><path fill="#0F310F" d="M361.28 727.623C385.27 726.024 395.393 750.187 388.968 770.201C382.646 789.892 357.67 794.606 343.794 778.512L343.736 798.699L343.765 816.373L331.527 816.22L331.522 728.664L343.982 728.643L343.919 738.069C350.002 731.184 352.066 729.229 361.28 727.623Z"/><path fill="white" d="M359.026 738.092C370.008 737.731 377.16 743.908 378.342 754.751C379.611 766.382 375.49 776.143 363.101 777.834C359.353 777.951 356.233 777.514 352.894 775.662C348.732 773.327 345.717 769.377 344.561 764.746C341.623 752.944 346.163 740.621 359.026 738.092Z"/><path fill="#0F310F" d="M744.842 728.685C761.198 725.428 777.081 736.101 780.247 752.475C783.413 768.849 772.652 784.673 756.26 787.748C739.997 790.799 724.324 780.14 721.183 763.894C718.042 747.648 728.613 731.916 744.842 728.685Z"/><path fill="white" d="M747.965 738.56C753.598 738.317 760.73 739.747 763.787 744.706C771.169 756.678 768.662 773.891 753.849 777.639C735.046 779.546 730.047 762.067 736.246 746.959C738.114 742.406 743.352 739.737 747.965 738.56Z"/><path fill="#0F310F" d="M610.073 728.056C626.509 726.92 640.789 739.243 642.071 755.667C643.353 772.092 631.158 786.481 614.745 787.909C598.125 789.355 583.514 776.972 582.216 760.339C580.917 743.707 593.43 729.206 610.073 728.056Z"/><path fill="white" d="M608.815 738.569C613.788 738.245 616.305 738.139 620.697 740.787C629.547 746.12 631.275 759.806 627.02 768.501C625.076 772.567 621.542 775.653 617.252 777.032C617.119 777.07 616.986 777.108 616.853 777.145L615.96 777.424C611.707 777.874 606.572 778.026 603.124 775.336C589.881 765.005 592.496 743.717 608.815 738.569Z"/><path d="M738.061 427.955C738.245 433.882 738.624 441.318 737.729 447.131C735.149 463.113 728.381 479.396 717.209 491.383C700.285 509.542 675.117 510.58 657.094 493.603C632.116 470.073 639.446 441.803 631.081 412.787C619.035 370.998 573.038 337.604 529.484 339.083C511.854 339.642 504.024 343.562 487.858 347.074C465.846 351.856 438.663 349.502 421.656 332.983C411.327 322.778 405.448 308.906 405.296 294.387C405.248 275.928 413.788 259.8 426.426 247.152C451.594 221.966 487.59 211.684 522.491 212.904C526.333 213.038 533.447 213.093 537.243 212.916C546.633 212.478 549.813 211.429 559.125 212.98C547.609 217.423 536.04 217.264 523.825 216.864C493.848 215.882 466.377 221.834 441.518 239.377C418.096 255.907 401.206 284.141 412.809 312.997C417.782 325.451 427.591 335.357 439.996 340.453C454.314 346.384 475.492 346.821 490.212 342.66C515.485 335.516 533.796 331.741 560.094 339.406C573.631 343.349 586.25 349.943 597.218 358.803C612.449 371.076 623.733 384.226 631.418 402.448C634.764 410.342 637.059 418.641 638.243 427.133C641.455 449.455 639.178 466.349 654.983 485.516C659.818 491.379 665.126 496.078 672.258 499.054C681.018 502.693 690.867 502.689 699.625 499.044C724.589 488.58 735.575 452.727 736.992 428.041L738.061 427.955Z"/><path d="M574.886 572.678C597.157 571.033 610.81 587.954 616.137 607.807C618.747 617.53 617.993 625.458 617.374 635.365C610.127 638.983 602.702 642.231 595.127 645.099L590.422 646.58C594.6 625.351 592.103 595.407 561.799 603.464L555.865 578.704C563.035 575.259 567.078 573.761 574.886 572.678Z"/><path fill="#0F310F" d="M424.932 727.662C448.314 726.464 456.103 742.058 456.039 762.46C444.698 762.44 423.638 761.768 413.062 762.669C410.7 765.26 415.399 772.831 417.936 774.798C421.396 777.492 425.82 778.624 430.148 777.924C436.071 777.025 439.153 773.179 442.236 768.649C443.088 767.397 443.867 767.69 445.375 767.629L455.038 767.679C446.527 796.403 403.317 794.5 399.885 763.642C397.849 745.336 405.289 730.375 424.932 727.662Z"/><path fill="white" d="M425.411 737.574C436.876 736.91 440.611 742.908 443.022 753.191C438.898 753.237 434.775 753.243 430.652 753.207C424.431 753.161 418.21 753.061 411.991 752.907C414.273 744.258 416.246 739.748 425.411 737.574Z"/><path fill="#0F310F" d="M495.725 727.607C496.762 727.549 497.799 727.506 498.836 727.478C509.023 727.223 518.302 733.382 519.851 743.415C521.929 756.876 521.012 773.705 520.688 787.331L508.862 787.27C508.935 775.587 509.388 762.542 508.734 750.914C508.082 739.313 499.028 734.83 488.203 738.923C480.896 743.777 480.124 749.714 480.059 757.974C479.982 767.786 480.022 777.608 480.028 787.421L467.752 787.437C467.934 767.834 467.994 748.229 467.931 728.626L480.331 728.652L480.157 736.262C485.138 730.788 488.683 728.919 495.725 727.607Z"/><path fill="#0F310F" d="M528.537 711.532C546.607 711.649 564.678 711.666 582.748 711.583C582.804 714.773 582.692 718.223 582.646 721.435L561.475 721.47L561.431 765.75L561.304 787.126L549.488 787.022L549.399 721.46L528.545 721.427L528.537 711.532Z"/><path d="M569.097 604.637C574.94 604.348 580.725 606.859 584.218 611.632C592.458 622.893 589.103 635.515 587.252 648.052C585.337 648.674 583.445 649.366 581.525 649.963C579.165 650.721 576.814 651.505 574.471 652.315C572.45 643.709 570.256 635.289 568.168 626.718C566.518 619.76 564.665 612.853 562.609 606.004C564.947 605.405 566.727 605.033 569.097 604.637Z"/><path fill="#131113" d="M409.012 233.72C409.762 233.142 410.528 232.628 411.468 232.5C412.203 233.041 409.857 234.707 409.386 235.136L409.012 233.72Z"/><path fill="#C5C7CC" d="M288.936 404.014C288.845 404.37 288.76 404.729 288.682 405.088C288.094 407.918 286.96 406.984 288.263 403.741L288.936 404.014Z"/><path fill="#5C595E" d="M736.992 428.041C737.144 426.908 737.45 424.67 737.772 423.586L737.718 423.55L737.751 423.427L737.796 423.521L737.76 423.571C738.055 425.01 738.028 426.487 738.061 427.955L736.992 428.041Z"/></svg>